<?xml version="1.0" encoding="UTF-8"?>
<!DOCTYPE svg PUBLIC "-//W3C//DTD SVG 1.1//EN" "http://www.w3.org/Graphics/SVG/1.1/DTD/svg11.dtd">
<svg xmlns="http://www.w3.org/2000/svg" version="1.1" width="500px" height="500px" style="shape-rendering:geometricPrecision; text-rendering:geometricPrecision; image-rendering:optimizeQuality; fill-rule:evenodd; clip-rule:evenodd" xmlns:xlink="http://www.w3.org/1999/xlink">
<g><path style="opacity:1" fill="#e39d44" d="M 468.5,18.5 C 469.035,20.4456 470.368,21.4456 472.5,21.5C 478.829,26.3439 482.996,32.6772 485,40.5C 485.667,180.5 485.667,320.5 485,460.5C 480.293,476.206 469.793,485.039 453.5,487C 347.833,487.667 242.167,487.667 136.5,487C 153.267,423.555 179.267,364.055 214.5,308.5C 215.906,308.027 216.573,307.027 216.5,305.5C 221.428,296.639 227.094,288.305 233.5,280.5C 234.906,280.027 235.573,279.027 235.5,277.5C 241.437,268.565 248.104,260.232 255.5,252.5C 256.906,252.027 257.573,251.027 257.5,249.5C 258.5,247.833 259.833,246.5 261.5,245.5C 262.906,245.027 263.573,244.027 263.5,242.5C 271.167,234.167 279.167,226.167 287.5,218.5C 290.764,216.906 293.431,214.573 295.5,211.5C 296.879,208.927 298.879,207.427 301.5,207C 313.375,220.038 325.041,233.205 336.5,246.5C 336.427,248.027 337.094,249.027 338.5,249.5C 340.5,250.833 342.167,252.5 343.5,254.5C 343.427,256.027 344.094,257.027 345.5,257.5C 347.5,258.833 349.167,260.5 350.5,262.5C 350.427,264.027 351.094,265.027 352.5,265.5C 354.836,267.004 356.669,269.004 358,271.5C 360.793,264.955 363.293,258.288 365.5,251.5C 367.213,250.365 367.88,248.698 367.5,246.5C 367.5,246.167 367.5,245.833 367.5,245.5C 369.213,244.365 369.88,242.698 369.5,240.5C 369.5,240.167 369.5,239.833 369.5,239.5C 371.213,238.365 371.88,236.698 371.5,234.5C 375.971,220.421 380.637,206.421 385.5,192.5C 387.213,191.365 387.88,189.698 387.5,187.5C 387.5,187.167 387.5,186.833 387.5,186.5C 389.213,185.365 389.88,183.698 389.5,181.5C 394.304,166.421 399.304,151.421 404.5,136.5C 406.213,135.365 406.88,133.698 406.5,131.5C 406.5,131.167 406.5,130.833 406.5,130.5C 408.213,129.365 408.88,127.698 408.5,125.5C 412.971,111.421 417.637,97.4214 422.5,83.5C 423.751,82.528 423.418,81.8614 421.5,81.5C 420.584,81.5427 419.917,81.8761 419.5,82.5C 355.539,95.4924 291.539,108.492 227.5,121.5C 243.354,139.519 259.02,157.686 274.5,176C 210.432,222.4 161.265,281.233 127,352.5C 119.379,369.232 111.879,385.898 104.5,402.5C 73.9096,378.954 43.4096,355.288 13,331.5C 12.1675,234.666 12.3342,137.999 13.5,41.5C 14.9238,39.4855 15.5905,37.1522 15.5,34.5C 15.3284,33.5084 15.6618,32.8417 16.5,32.5C 17.9063,32.0269 18.573,31.0269 18.5,29.5C 19.9063,29.0269 20.573,28.0269 20.5,26.5C 22.2393,23.7573 24.5726,21.7573 27.5,20.5C 29.4044,20.2624 30.7377,19.2624 31.5,17.5C 34.9116,15.641 38.5783,14.4744 42.5,14C 180.167,13.3333 317.833,13.3333 455.5,14C 460.243,14.6351 464.576,16.1351 468.5,18.5 Z"/></g>
<g><path style="opacity:0.655" fill="#f3cea2" d="M 31.5,17.5 C 30.7377,19.2624 29.4044,20.2624 27.5,20.5C 28.2623,18.7376 29.5956,17.7376 31.5,17.5 Z"/></g>
<g><path style="opacity:0.945" fill="#f5cfa3" d="M 468.5,18.5 C 470.23,19.0256 471.564,20.0256 472.5,21.5C 470.368,21.4456 469.035,20.4456 468.5,18.5 Z"/></g>
<g><path style="opacity:0.569" fill="#f4d2a9" d="M 20.5,26.5 C 20.573,28.0269 19.9063,29.0269 18.5,29.5C 18.427,27.9731 19.0937,26.9731 20.5,26.5 Z"/></g>
<g><path style="opacity:0.416" fill="#f6d9b6" d="M 18.5,29.5 C 18.573,31.0269 17.9063,32.0269 16.5,32.5C 16.427,30.9731 17.0937,29.9731 18.5,29.5 Z"/></g>
<g><path style="opacity:0.961" fill="#f0c28c" d="M 15.5,34.5 C 15.5905,37.1522 14.9238,39.4855 13.5,41.5C 13.4095,38.8478 14.0762,36.5145 15.5,34.5 Z"/></g>
<g><path style="opacity:0.165" fill="#f6dcbd" d="M 419.5,82.5 C 419.917,81.8761 420.584,81.5427 421.5,81.5C 423.418,81.8614 423.751,82.528 422.5,83.5C 421.791,82.596 420.791,82.2627 419.5,82.5 Z"/></g>
<g><path style="opacity:0.898" fill="#f5d0a5" d="M 408.5,125.5 C 408.88,127.698 408.213,129.365 406.5,130.5C 406.796,128.597 407.463,126.93 408.5,125.5 Z"/></g>
<g><path style="opacity:0.898" fill="#f4cea1" d="M 406.5,131.5 C 406.88,133.698 406.213,135.365 404.5,136.5C 404.796,134.597 405.463,132.93 406.5,131.5 Z"/></g>
<g><path style="opacity:0.894" fill="#f5d0a4" d="M 389.5,181.5 C 389.88,183.698 389.213,185.365 387.5,186.5C 387.796,184.597 388.463,182.93 389.5,181.5 Z"/></g>
<g><path style="opacity:0.898" fill="#f4cea1" d="M 387.5,187.5 C 387.88,189.698 387.213,191.365 385.5,192.5C 385.796,190.597 386.463,188.93 387.5,187.5 Z"/></g>
<g><path style="opacity:0.851" fill="#f1c28c" d="M 295.5,211.5 C 293.431,214.573 290.764,216.906 287.5,218.5C 289.569,215.427 292.236,213.094 295.5,211.5 Z"/></g>
<g><path style="opacity:0.847" fill="#f5d2aa" d="M 371.5,234.5 C 371.88,236.698 371.213,238.365 369.5,239.5C 369.796,237.597 370.463,235.93 371.5,234.5 Z"/></g>
<g><path style="opacity:0.741" fill="#f5d1a7" d="M 263.5,242.5 C 263.573,244.027 262.906,245.027 261.5,245.5C 261.427,243.973 262.094,242.973 263.5,242.5 Z"/></g>
<g><path style="opacity:0.894" fill="#f4cfa3" d="M 369.5,240.5 C 369.88,242.698 369.213,244.365 367.5,245.5C 367.796,243.597 368.463,241.93 369.5,240.5 Z"/></g>
<g><path style="opacity:0.749" fill="#f5d1a8" d="M 336.5,246.5 C 337.906,246.973 338.573,247.973 338.5,249.5C 337.094,249.027 336.427,248.027 336.5,246.5 Z"/></g>
<g><path style="opacity:0.914" fill="#f3cb9d" d="M 367.5,246.5 C 367.88,248.698 367.213,250.365 365.5,251.5C 365.796,249.597 366.463,247.93 367.5,246.5 Z"/></g>
<g><path style="opacity:0.718" fill="#f5d3ac" d="M 257.5,249.5 C 257.573,251.027 256.906,252.027 255.5,252.5C 255.427,250.973 256.094,249.973 257.5,249.5 Z"/></g>
<g><path style="opacity:0.745" fill="#f5d1a8" d="M 343.5,254.5 C 344.906,254.973 345.573,255.973 345.5,257.5C 344.094,257.027 343.427,256.027 343.5,254.5 Z"/></g>
<g><path style="opacity:0.761" fill="#f5d0a6" d="M 350.5,262.5 C 351.906,262.973 352.573,263.973 352.5,265.5C 351.094,265.027 350.427,264.027 350.5,262.5 Z"/></g>
<g><path style="opacity:0.584" fill="#f3cea2" d="M 235.5,277.5 C 235.573,279.027 234.906,280.027 233.5,280.5C 233.427,278.973 234.094,277.973 235.5,277.5 Z"/></g>
<g><path style="opacity:0.529" fill="#f4cea3" d="M 216.5,305.5 C 216.573,307.027 215.906,308.027 214.5,308.5C 214.427,306.973 215.094,305.973 216.5,305.5 Z"/></g>
<g><path style="opacity:0.541" fill="#f1cfa1" d="M 14.5,423.5 C 13.5049,435.322 13.1716,447.322 13.5,459.5C 12.1753,447.327 12.1753,434.994 13.5,422.5C 14.1067,422.624 14.44,422.957 14.5,423.5 Z"/></g>
<g><path style="opacity:0.999" fill="#e39f47" d="M 14.5,423.5 C 50.8606,439.66 84.194,460.327 114.5,485.5C 91.3393,486.498 68.006,486.831 44.5,486.5C 37.4792,486.498 31.4792,484.165 26.5,479.5C 26.0269,478.094 25.0269,477.427 23.5,477.5C 18.0424,472.702 14.709,466.702 13.5,459.5C 13.1716,447.322 13.5049,435.322 14.5,423.5 Z"/></g>
<g><path style="opacity:0.737" fill="#f5d2aa" d="M 23.5,477.5 C 25.0269,477.427 26.0269,478.094 26.5,479.5C 24.9731,479.573 23.9731,478.906 23.5,477.5 Z"/></g>
<g><path style="opacity:0.015" fill="#fefdfb" d="M 114.5,485.5 C 115.043,485.56 115.376,485.893 115.5,486.5C 91.6701,487.829 68.0034,487.829 44.5,486.5C 68.006,486.831 91.3393,486.498 114.5,485.5 Z"/></g>
</svg>
